<?xml version="1.0" encoding="utf-8"?>
<!-- Generator: Adobe Adobe Illustrator 24.2.0, SVG Export Plug-In . SVG Version: 6.00 Build 0)  -->
<svg version="1.1" id="Layer_1" xmlns="http://www.w3.org/2000/svg" xmlns:xlink="http://www.w3.org/1999/xlink" x="0px" y="0px"
	 viewBox="0 0 1000 1000" style="enable-background:new 0 0 1000 1000;" xml:space="preserve">
<style type="text/css">
	.st0{fill:#001E3B;stroke:#000000;stroke-miterlimit:10;}
	.st1{fill:#0080FF;}
	.st2{fill:#004589;}
</style>
<path class="st0" d="M107.43,419.83v298.29c0,1.96,1.59,3.55,3.55,3.55h778.03c1.97,0,3.57-1.6,3.57-3.57l-0.53-297.74l-71.46-0.52
	v237.04l-639.89-1.21l-1.26-235.84H107.43z"/>
<path class="st1" d="M226.5,612.33v-329c0-2.76,2.24-5,5-5h537c2.76,0,5,2.24,5,5v329c0,2.76-2.24,5-5,5h-537
	C228.74,617.33,226.5,615.09,226.5,612.33z"/>
<g>
	<path class="st2" d="M497.85,453.62L226.5,300.5v35.53l262.22,147.98c7,3.95,15.56,3.95,22.56,0L773.5,335.99v-36.03L502.14,453.62
		C500.81,454.37,499.19,454.37,497.85,453.62z"/>
</g>
</svg>
